<svg xmlns="http://www.w3.org/2000/svg" xmlns:xlink="http://www.w3.org/1999/xlink"><symbol viewBox="0 0 72 64" id="bubbles"><path d="M68 56.323a7.296 7.296 0 0 0 4 6.51v.997a14.83 14.83 0 0 1-12.826-4.503C57.534 59.763 55.8 60 54 60c-9.94 0-18-7.164-18-16s8.06-16 18-16 18 7.162 18 16c0 3.458-1.235 6.66-3.335 9.278A7.25 7.25 0 0 0 68 56.322zM32 0c17.404 0 31.562 11.288 31.99 25.345-3.074-1.37-6.474-2.095-9.99-2.095-5.972 0-11.614 2.09-15.884 5.886C33.688 33.072 31.25 38.35 31.25 44c0 2.792.596 5.493 1.733 7.987a39.503 39.503 0 0 1-5.972-.302C20.137 58.56 11.933 59.79 4 59.972V58.29c4.284-2.1 8-5.92 8-10.29 0-.61-.047-1.208-.135-1.794C4.628 41.44 0 34.16 0 26 0 11.64 14.327 0 32 0z"/></symbol><symbol viewBox="0 0 64 64" id="cog"><path d="M58.362 38.14c-3.358-5.815-1.34-13.268 4.51-16.654l-6.29-10.893a12.056 12.056 0 0 1-6.114 1.657c-6.72 0-12.17-5.484-12.17-12.25H25.72a12.055 12.055 0 0 1-1.622 6.142c-3.358 5.816-10.822 7.794-16.68 4.422L1.13 21.457a12.053 12.053 0 0 1 4.493 4.467C8.975 31.73 6.968 39.17 1.14 42.564l6.29 10.892a12.048 12.048 0 0 1 6.088-1.64c6.7 0 12.134 5.45 12.17 12.184h12.577a12.055 12.055 0 0 1 1.623-6.076c3.352-5.807 10.798-7.787 16.65-4.438l6.29-10.893a12.05 12.05 0 0 1-4.465-4.452zM32 44.96c-7.157 0-12.96-5.8-12.96-12.958S24.844 19.042 32 19.042c7.157 0 12.958 5.802 12.958 12.958S39.158 44.958 32 44.958z"/></symbol><symbol viewBox="0 0 64 64" id="glasses--martini"><path d="M55.573 11.236A2 2 0 0 0 54 8H10a2 2 0 0 0-1.573 3.236L28 36.146v23.855h-6a2 2 0 0 0 0 4h20a2 2 0 0 0 0-4h-6V36.148l19.573-24.91zM49.885 12L43.6 20H20.4l-6.286-8h35.77z"/></symbol><symbol viewBox="0 0 64 64" id="glasses--wine"><path d="M48.61 1.054A2 2 0 0 0 46.85 0h-29.7a2 2 0 0 0-1.762 1.054c-2.217 4.126-3.39 8.95-3.39 13.947 0 6.59 2.024 12.803 5.698 17.497 2.84 3.628 6.405 6.034 10.303 7.01v20.494h-6a2 2 0 0 0 0 4h20a2 2 0 0 0 0-4h-6V39.51c3.897-.977 7.463-3.383 10.302-7.01C49.976 27.802 52 21.587 52 15c0-4.996-1.173-9.82-3.39-13.946zM18.38 4h27.24C47.18 7.306 48 11.084 48 15c0 .335-.007.668-.02 1H16.02A27.67 27.67 0 0 1 16 15c0-3.916.82-7.694 2.38-11z"/></symbol></svg>